<?xml version="1.0" encoding="UTF-8" standalone="no"?>
<svg width="100%" height="100%" viewBox="0 0 16 16" version="1.1" xmlns="http://www.w3.org/2000/svg">
    <rect x="1" y="1" width="14" height="14" style="fill:white;fill-rule:nonzero;"/>
    <path d="M1,1l0,14l14,0l0,-14l-14,0Zm1,1l12,0l0,12l-12,0l0,-12Z" style="fill:rgb(153,153,153);fill-rule:nonzero;"/>
    <g transform="matrix(1,0,0,1,1,0)">
        <path d="M12,7l0,6l-9,0l0,-10l5,0l0,4l4,0Z" style="fill:rgb(66,13,242);"/>
    </g><path d="M5,8l6,0" style="fill:none;stroke:white;stroke-width:1px;"/>
    <path d="M5,10l6,0" style="fill:none;stroke:white;stroke-width:1px;"/>
    <path d="M5,6l3,0" style="fill:none;stroke:white;stroke-width:1px;"/>
    <g transform="matrix(1,0,0,1,1,0)">
        <path d="M8,3l0,4l4,0l-4,-4Z" style="fill:rgb(13,121,242);"/>
    </g>
    <path d="M5.5,3l0.406,1.25l0.783,-0.386l-0.126,0.863l1.315,0l-1.064,0.773l0.61,0.625l-0.861,0.148l0.406,1.25l-1.063,-0.773l-0.406,0.773l-0.406,-0.773l-1.063,0.773l0.406,-1.25l-0.861,-0.148l0.61,-0.625l-1.064,-0.773l1.315,0l-0.126,-0.863l0.783,0.386l0.406,-1.25Z" style="fill:rgb(242,175,13);"/>
</svg>
