<?xml version="1.0" encoding="UTF-8" standalone="no"?>
<svg width="100%" height="100%" viewBox="0 0 16 16" version="1.1" xmlns="http://www.w3.org/2000/svg">
    <rect x="1" y="1" width="14" height="14" style="fill:white;"/>
    <path d="M1,1l0,14l14,0l0,-14l-14,0Zm1,1l12,0l0,12l-12,0l0,-12Z" style="fill:rgb(153,153,153);"/>
    <path d="M7.268,5c-0,0 0.249,-0.247 0.31,-0.406c0.067,-0.176 0.041,-0.469 0.093,-0.651c0.046,-0.159 0.114,-0.323 0.22,-0.443c0.105,-0.12 0.264,-0.207 0.413,-0.279c0.165,-0.08 0.47,-0.162 0.577,-0.199c0.022,-0.007 0.065,-0.022 0.065,-0.022c-0,-0 0.231,0 0.289,0.082c0.059,0.083 0.068,0.418 0.068,0.418c-0,-0 -0.078,0.351 -0.094,0.5c-0.015,0.131 -0.008,0.394 -0.008,0.394l0.036,0.484c-0.398,0.048 -0.144,-0.109 -1.087,0.082c-0.309,0.062 -0.583,0.161 -0.745,0.157c-0.099,-0.002 -0.102,-0.1 -0.137,-0.117Z" style="fill:rgb(38,123,217);"/>
    <path d="M7.406,5.113c0.225,-0.02 0.9,-0.199 1.21,-0.235c0.216,-0.024 0.44,-0.025 0.652,0.024c0.25,0.057 0.592,0.195 0.844,0.319c0.237,0.115 0.669,0.422 0.669,0.422c-0,-0 0.379,0.413 0.499,0.572c0.089,0.119 0.22,0.385 0.22,0.385c0,0 -0.122,0.421 -0.088,0.63c0.037,0.233 0.2,0.6 0.312,0.77c0.079,0.122 0.232,0.174 0.355,0.252c0.164,0.103 0.433,0.224 0.628,0.369c0.25,0.185 0.764,0.569 0.87,0.743c0.066,0.108 -0.13,0.225 -0.233,0.299c-0.126,0.091 -0.345,0.174 -0.524,0.246c-0.2,0.081 -0.456,0.27 -0.676,0.239c-0.22,-0.032 -0.397,-0.36 -0.644,-0.429c-0.247,-0.068 -0.775,-0.064 -0.837,0.017c-0.061,0.081 0.467,0.468 0.467,0.468c0,-0 0.441,0.206 0.586,0.296c0.106,0.066 0.334,0.162 0.284,0.245c-0.05,0.083 -0.374,0.228 -0.586,0.255c-0.229,0.029 -0.556,-0.01 -0.792,-0.08c-0.226,-0.068 -0.418,-0.27 -0.622,-0.34c-0.192,-0.066 -0.405,-0.086 -0.604,-0.08c-0.199,0.006 -0.59,0.118 -0.59,0.118l-0.943,0.471c-0,-0 -0.496,0.31 -0.686,0.331c-0.166,0.018 -0.457,-0.206 -0.457,-0.206l-0.993,-0.461c0,0 -0.467,-0.215 -0.649,-0.389c-0.33,-0.314 -1.33,-1.497 -1.33,-1.497c0,0 -0.401,-0.448 -0.359,-0.635c0.042,-0.187 0.611,-0.489 0.611,-0.489l0.736,-0.481l0.628,-0.357c-0,-0 0.592,-0.237 0.763,-0.326c0.098,-0.051 0.198,-0.155 0.26,-0.206c0.039,-0.033 0.066,-0.084 0.113,-0.101c0.051,-0.02 0.196,-0.015 0.196,-0.015c0,-0 -0.511,-0.158 -0.696,-0.257c-0.158,-0.085 -0.295,-0.208 -0.416,-0.34c-0.143,-0.156 -0.379,-0.485 -0.444,-0.595c-0.014,-0.024 0.027,-0.054 0.052,-0.065c0.06,-0.027 0.202,-0.083 0.308,-0.098c0.106,-0.014 0.217,0.01 0.326,0.013c0.166,0.005 0.461,0.004 0.674,0.018c0.203,0.014 0.478,0.056 0.606,0.067c0.054,0.005 0.112,-0.019 0.162,-0c0.05,0.019 0.079,0.118 0.138,0.113Z" style="fill:rgb(0,0,255);"/>
</svg>
