<?xml version="1.0" encoding="UTF-8" standalone="no"?>
<svg width="100%" height="100%" viewBox="0 0 16 16" version="1.1" xmlns="http://www.w3.org/2000/svg">
    <g transform="matrix(1.52011,0,0,1.68901,-4.16089,-4.6676)">
        <path d="M6.499,6.576c0.019,-0.026 0.029,-0.051 0.028,-0.076c-0.011,-0.361 -0.527,-0.896 -0.527,-1.5c0,-1.104 0.896,-2 2,-2c1.104,-0 2,0.896 2,2c0,0.604 -0.516,1.139 -0.527,1.5c-0.001,0.025 0.009,0.05 0.028,0.076l-1.5,1.351l-1.502,-1.351Z" style="fill:rgb(217,164,38);"/>
    </g>
    <g transform="matrix(1.52011,0,0,1.68901,-4.16089,-4.6676)">
        <path d="M9.501,6.576c0.141,0.203 0.786,0.468 0.999,0.924c0.077,0.165 0.096,0.275 0.235,0.5c-0,0 0.517,0.623 0.631,1c0.191,0.634 0.773,2.251 0.517,2.806c-0.091,0.197 -3.883,0.194 -3.883,0.194c0,-0 -3.792,0.003 -3.883,-0.194c-0.256,-0.555 0.326,-2.172 0.517,-2.806c0.114,-0.377 0.631,-1 0.631,-1c0.139,-0.225 0.158,-0.335 0.235,-0.5c0.213,-0.456 0.858,-0.721 0.999,-0.924l1.502,1.351l1.5,-1.351Z" style="fill:rgb(0,0,255);"/>
    </g>
    <g transform="matrix(1.52011,0,0,1.52011,-4.16089,-4.16089)">
        <path d="M9.14,8.932l0.186,0.57l0.357,-0.176l-0.057,0.394l0.599,-0l-0.485,0.352l0.278,0.285l-0.392,0.067l0.185,0.571l-0.485,-0.353l-0.186,0.353l-0.185,-0.353l-0.485,0.353l0.185,-0.571l-0.392,-0.067l0.278,-0.285l-0.485,-0.352l0.599,-0l-0.057,-0.394l0.357,0.176l0.185,-0.57Z" style="fill:rgb(229,242,13);"/>
    </g>
</svg>
