<?xml version="1.0" encoding="UTF-8" standalone="no"?>
<svg width="100%" height="100%" viewBox="0 0 16 16" version="1.1" xmlns="http://www.w3.org/2000/svg">
    <g transform="matrix(0.652802,0,0,0.652802,4.52776,1.2382)">
        <path d="M8,6.061c1.227,0 2.658,0.928 3.682,2.298c0.587,0.784 0.946,1.72 1.051,2.384c0.214,1.36 -1.05,2.054 -1.733,2.257c-0.992,0.295 -2.481,-1.105 -3,-1.094c-0.505,0.011 -2.008,1.389 -3,1.094c-0.683,-0.203 -1.915,-0.842 -1.733,-2.257c0.086,-0.667 0.464,-1.6 1.051,-2.384c1.024,-1.37 2.455,-2.298 3.682,-2.298Z" style="fill:rgb(242,175,13);"/>
        <g transform="matrix(0.906308,-0.422618,0.422618,0.906308,-3.87096,3.99642)">
            <ellipse cx="5.667" cy="4.5" rx="1.333" ry="2.212" style="fill:rgb(242,175,13);"/>
        </g>
        <g transform="matrix(0.965926,-0.258819,0.258819,0.965926,-0.304775,0.831772)">
            <ellipse cx="5.667" cy="4.5" rx="1.333" ry="2.212" style="fill:rgb(242,175,13);"/>
        </g>
        <g transform="matrix(0.906308,0.422618,-0.422618,0.906308,9.43279,-0.793158)">
            <ellipse cx="5.667" cy="4.5" rx="1.333" ry="2.212" style="fill:rgb(242,175,13);"/>
        </g>
        <g transform="matrix(0.965926,0.258819,-0.258819,0.965926,5.19127,-2.10145)">
            <ellipse cx="5.667" cy="4.5" rx="1.333" ry="2.212" style="fill:rgb(242,175,13);"/>
        </g>
    </g>
    <g transform="matrix(0.652802,0,0,0.652802,0.332052,5.12503)">
        <path d="M8,6.061c1.227,0 2.658,0.928 3.682,2.298c0.587,0.784 0.946,1.72 1.051,2.384c0.214,1.36 -1.05,2.054 -1.733,2.257c-0.992,0.295 -2.481,-1.105 -3,-1.094c-0.505,0.011 -2.008,1.389 -3,1.094c-0.683,-0.203 -1.915,-0.842 -1.733,-2.257c0.086,-0.667 0.464,-1.6 1.051,-2.384c1.024,-1.37 2.455,-2.298 3.682,-2.298Z" style="fill:rgb(0,0,255);"/>
        <g transform="matrix(0.906308,-0.422618,0.422618,0.906308,-3.87096,3.99642)">
            <ellipse cx="5.667" cy="4.5" rx="1.333" ry="2.212" style="fill:rgb(0,0,255);"/>
        </g>
        <g transform="matrix(0.965926,-0.258819,0.258819,0.965926,-0.304775,0.831772)">
            <ellipse cx="5.667" cy="4.5" rx="1.333" ry="2.212" style="fill:rgb(0,0,255);"/>
        </g>
        <g transform="matrix(0.906308,0.422618,-0.422618,0.906308,9.43279,-0.793158)">
            <ellipse cx="5.667" cy="4.5" rx="1.333" ry="2.212" style="fill:rgb(0,0,255);"/>
        </g>
        <g transform="matrix(0.965926,0.258819,-0.258819,0.965926,5.19127,-2.10145)">
            <ellipse cx="5.667" cy="4.5" rx="1.333" ry="2.212" style="fill:rgb(0,0,255);"/>
        </g>
    </g>
</svg>
